<?xml version="1.0" encoding="utf-8"?>
<!-- Generator: Adobe Illustrator 16.0.3, SVG Export Plug-In . SVG Version: 6.00 Build 0)  -->
<!DOCTYPE svg PUBLIC "-//W3C//DTD SVG 1.1//EN" "http://www.w3.org/Graphics/SVG/1.1/DTD/svg11.dtd">
<svg version="1.1" xmlns="http://www.w3.org/2000/svg" xmlns:xlink="http://www.w3.org/1999/xlink" x="0px" y="0px" width="350px"
	 height="350px" viewBox="0 0 350 350" enable-background="new 0 0 350 350" xml:space="preserve">
<g id="Layer_2">
</g>
<g id="Layer_1">
	<g>
		<g>
			<path fill="#FFFFFF" d="M58.489,150.149c0-1.888,0.603-3.305,1.807-4.249c1.203-0.941,2.512-1.417,3.93-1.417
				c0.708,0,1.392,0.118,2.056,0.355c0.66,0.237,1.249,0.59,1.77,1.062c0.517,0.472,0.942,1.062,1.273,1.77
				c0.33,0.709,0.495,1.535,0.495,2.479v58.778c0,1.885-0.612,3.315-1.84,4.282c-1.229,0.966-2.551,1.45-3.966,1.45
				c-1.418,0-2.691-0.46-3.824-1.379c-1.134-0.924-1.7-2.373-1.7-4.354V150.149z"/>
			<path fill="#FFFFFF" d="M151.682,178.688l-20.324-25.564c-0.426-0.52-0.722-1.036-0.886-1.558
				c-0.165-0.519-0.247-1.038-0.247-1.559c0-0.753,0.166-1.463,0.496-2.122c0.329-0.661,0.779-1.241,1.345-1.736
				c0.566-0.497,1.215-0.896,1.947-1.204c0.731-0.307,1.476-0.461,2.23-0.461c0.804,0,1.594,0.191,2.372,0.566
				c0.781,0.379,1.498,0.993,2.162,1.843l18.693,24.643l19.262-24.927c0.566-0.755,1.191-1.297,1.876-1.628
				c0.685-0.329,1.381-0.497,2.089-0.497c1.321,0,2.502,0.476,3.542,1.417c1.038,0.944,1.558,2.053,1.558,3.328
				c0,0.992-0.355,1.938-1.062,2.831l-20.466,26.415l21.88,27.688c0.756,0.944,1.135,1.96,1.135,3.046
				c0,0.708-0.167,1.393-0.495,2.053c-0.332,0.66-0.779,1.24-1.348,1.734c-0.565,0.497-1.215,0.899-1.946,1.204
				c-0.732,0.31-1.477,0.46-2.229,0.46c-0.805,0-1.594-0.188-2.373-0.564c-0.779-0.379-1.499-0.991-2.16-1.842l-20.536-26.841
				l-20.536,27.193c-1.038,1.37-2.313,2.054-3.823,2.054c-0.709,0-1.394-0.141-2.055-0.425c-0.662-0.284-1.251-0.648-1.771-1.098
				c-0.519-0.446-0.933-0.979-1.239-1.593c-0.307-0.612-0.46-1.249-0.46-1.91c0-0.944,0.33-1.819,0.991-2.623L151.682,178.688z"/>
			<path fill="#FFFFFF" d="M243.173,179.537c0-4.956,0.744-9.642,2.233-14.058c1.486-4.414,3.656-8.296,6.513-11.647
				s6.361-6.008,10.517-7.968c4.152-1.958,8.898-2.938,14.234-2.938c2.217,0,4.591,0.213,7.117,0.638
				c2.524,0.425,4.851,1.038,6.974,1.842c2.126,0.803,3.883,1.77,5.276,2.903c1.391,1.133,2.088,2.406,2.088,3.824
				c0,1.086-0.354,2.055-1.062,2.902c-0.708,0.85-1.677,1.274-2.904,1.274c-0.565,0-1.202-0.141-1.911-0.425
				c-4.722-2.737-9.585-4.106-14.588-4.106c-3.352,0-6.407,0.648-9.169,1.948c-2.764,1.299-5.137,3.14-7.118,5.521
				c-1.982,2.385-3.519,5.265-4.603,8.641c-1.087,3.375-1.629,7.212-1.629,11.507c0,3.398,0.364,6.738,1.098,10.021
				c0.73,3.281,1.958,6.303,3.684,9.065c1.722,2.76,4.059,4.943,7.009,6.548c2.95,1.606,6.504,2.409,10.656,2.409
				c2.597,0,5.195-0.399,7.791-1.205c2.596-0.801,5.334-1.935,8.215-3.398c0.707-0.284,1.368-0.424,1.982-0.424
				c1.133,0,2.041,0.401,2.729,1.202c0.681,0.804,1.025,1.748,1.025,2.833c0,1.418-0.78,2.738-2.337,3.967
				c-1.559,1.228-3.495,2.256-5.809,3.08c-2.313,0.826-4.839,1.487-7.576,1.983c-2.739,0.495-5.265,0.743-7.578,0.743
				c-5.379,0-10.115-0.968-14.196-2.905c-4.084-1.934-7.507-4.578-10.269-7.93c-2.761-3.353-4.851-7.259-6.267-11.72
				C243.882,189.203,243.173,184.493,243.173,179.537z"/>
			<path fill="#FFFFFF" d="M124.207,135.867c-12.883,10.22-21.159,26.009-21.159,43.693c0,17.453,8.063,33.058,20.656,43.29
				l-5.406,6.685c-14.535-11.793-23.822-29.799-23.822-49.975c0-20.41,9.505-38.601,24.332-50.385L124.207,135.867z
				 M199.185,129.494c14.601,11.791,23.936,29.839,23.936,50.066c0,20.007-9.133,37.881-23.459,49.678l-5.42-6.674
				c12.394-10.234,20.308-25.713,20.308-43.004c0-17.508-8.111-33.156-20.775-43.385L199.185,129.494z"/>
			<circle fill="#FFFFFF" cx="64.12" cy="119.456" r="6.841"/>
		</g>
		<path fill="#FFFFFF" d="M342.123,175.001c0,92.3-74.823,167.123-167.123,167.123S7.876,267.301,7.876,175.001
			C7.876,82.7,82.7,7.877,175,7.877S342.123,82.7,342.123,175.001z M175,21.676c-84.679,0-153.325,68.646-153.325,153.325
			c0,84.679,68.646,153.324,153.325,153.324s153.324-68.646,153.324-153.324C328.324,90.321,259.679,21.676,175,21.676z"/>
	</g>
</g>
</svg>
