<?xml version="1.0" encoding="utf-8"?>
<!-- Generator: Adobe Illustrator 17.1.0, SVG Export Plug-In . SVG Version: 6.00 Build 0)  -->
<!DOCTYPE svg PUBLIC "-//W3C//DTD SVG 1.1//EN" "http://www.w3.org/Graphics/SVG/1.1/DTD/svg11.dtd">
<svg version="1.1" id="Layer_1" xmlns="http://www.w3.org/2000/svg" xmlns:xlink="http://www.w3.org/1999/xlink" x="0px" y="0px"
	 viewBox="-1549.2 359.5 2342.2 504.9" enable-background="new -1549.2 359.5 2342.2 504.9" xml:space="preserve">
<g>
	<g>
		<g>
			<g>
				<path fill="#FFFFFF" d="M310.8,709.1c9.7,22.1,21.7,42.1,36.4,60.2c-5.6,7.4-12.1,14.1-18.8,20.4
					c-20.4,18.8-43.2,33.1-68.3,43.2c-25.2,10.1-50.2,17.4-75.1,22.3c-25,4.8-48.4,7.5-70.7,8.3c-22.1,0.7-40.1,0.9-53.8,0.9H9
					V360.2h51.4c14.6,0,30.3,0.1,47,0.4c16.8,0.3,34,1.2,51.8,3.1c17.8,1.9,35.7,4.8,53.5,8.9c17.8,4.2,35.3,9.9,52.2,17.2
					c15,6.8,30.5,16,46.3,27.1c13.4,9.5,25.6,21.5,36.8,35.6c-15,18.4-27.4,38.8-37.2,61.2c-13.3,30.5-19.9,63.1-19.9,97.8
					C290.9,646.1,297.5,678.8,310.8,709.1z"/>
			</g>
		</g>
		<g>
			<g>
				<path fill="#FFFFFF" d="M793,611.4c0,34.8-6.6,67.4-19.9,97.7c-13.3,30.5-31.1,57-53.8,80c-22.7,22.8-49.3,40.9-79.6,54.2
					c-30.5,13.3-63.1,19.9-97.8,19.9c-34.8,0-67.4-6.6-97.7-19.9c-30.5-13.3-57-31.4-79.6-54.2c-6.2-6.3-12.1-12.9-17.6-19.7
					c12.1-14.6,22.4-31.5,30.9-50.6c12.9-28.6,19.2-64,19.2-106c0-34.4-4-63.9-12.3-88.8c-8.2-25-18.5-46.2-31.1-63.9
					c-1.9-2.7-3.8-5.2-5.8-7.7c5.2-6.4,10.9-12.7,16.8-18.8c22.6-22.8,49.1-40.9,79.6-54.1c30.3-13.3,62.9-20,97.7-20
					c34.7,0,67.3,6.7,97.8,20c30.3,13.1,56.9,31.3,79.6,54.1c22.7,22.9,40.5,49.5,53.8,80C786.4,544,793,576.6,793,611.4z"/>
			</g>
		</g>
	</g>
	<g id="Layer_1_1_">
		<g>
			<g>
				<path fill="#FFFFFF" d="M-1544,522.4c0-8.1,2.6-14.2,7.8-18.3c5.2-4,10.8-6.1,16.9-6.1c3,0,6,0.5,8.8,1.5c2.8,1,5.4,2.5,7.6,4.6
					c2.2,2,4,4.6,5.5,7.6c1.4,3,2.1,6.6,2.1,10.7V775c0,8.1-2.6,14.2-7.9,18.4c-5.3,4.2-11,6.2-17,6.2c-6.1,0-11.6-2-16.4-5.9
					c-4.9-4-7.3-10.2-7.3-18.7L-1544,522.4L-1544,522.4z"/>
				<path fill="#FFFFFF" d="M-1143.4,645.1l-87.4-109.9c-1.8-2.2-3.1-4.5-3.8-6.7c-0.7-2.2-1.1-4.5-1.1-6.7c0-3.2,0.7-6.3,2.1-9.1
					c1.4-2.8,3.3-5.3,5.8-7.5c2.4-2.1,5.2-3.9,8.4-5.2c3.1-1.3,6.3-2,9.6-2c3.5,0,6.9,0.8,10.2,2.4c3.4,1.6,6.4,4.3,9.3,7.9
					l80.3,105.9l82.8-107.1c2.4-3.2,5.1-5.6,8.1-7c2.9-1.4,5.9-2.1,9-2.1c5.7,0,10.8,2,15.2,6.1c4.5,4.1,6.7,8.8,6.7,14.3
					c0,4.3-1.5,8.3-4.6,12.2l-88,113.5l94,119c3.2,4.1,4.9,8.4,4.9,13.1c0,3-0.7,6-2.1,8.8c-1.4,2.8-3.3,5.3-5.8,7.5
					c-2.4,2.1-5.2,3.9-8.4,5.2c-3.1,1.3-6.3,2-9.6,2c-3.5,0-6.9-0.8-10.2-2.4c-3.3-1.6-6.4-4.3-9.3-7.9l-88.3-115.4l-88.3,116.9
					c-4.5,5.9-9.9,8.8-16.4,8.8c-3,0-6-0.6-8.8-1.8c-2.8-1.2-5.4-2.8-7.6-4.7c-2.2-1.9-4-4.2-5.3-6.8c-1.3-2.6-2-5.4-2-8.2
					c0-4.1,1.4-7.8,4.3-11.3L-1143.4,645.1z"/>
				<path fill="#FFFFFF" d="M-750.2,648.7c0-21.3,3.2-41.4,9.6-60.4c6.4-19,15.7-35.7,28-50.1c12.3-14.4,27.3-25.8,45.2-34.2
					c17.8-8.4,38.2-12.6,61.2-12.6c9.5,0,19.7,0.9,30.6,2.7c10.8,1.8,20.8,4.5,30,7.9c9.1,3.5,16.7,7.6,22.7,12.5
					c6,4.9,9,10.3,9,16.4c0,4.7-1.5,8.8-4.6,12.5c-3,3.7-7.2,5.5-12.5,5.5c-2.4,0-5.2-0.6-8.2-1.8c-20.3-11.8-41.2-17.6-62.7-17.6
					c-14.4,0-27.5,2.8-39.4,8.4c-11.9,5.6-22.1,13.5-30.6,23.7c-8.5,10.3-15.1,22.6-19.8,37.1c-4.7,14.5-7,31-7,49.5
					c0,14.6,1.6,29,4.7,43.1c3.1,14.1,8.4,27.1,15.8,39c7.4,11.9,17.4,21.2,30.1,28.1c12.7,6.9,28,10.4,45.8,10.4
					c11.2,0,22.3-1.7,33.5-5.2c11.2-3.4,22.9-8.3,35.3-14.6c3-1.2,5.9-1.8,8.5-1.8c4.9,0,8.8,1.7,11.7,5.2c2.9,3.5,4.4,7.5,4.4,12.2
					c0,6.1-3.4,11.8-10,17c-6.7,5.3-15,9.7-25,13.2c-9.9,3.6-20.8,6.4-32.6,8.5c-11.8,2.1-22.6,3.2-32.6,3.2
					c-23.1,0-43.5-4.2-61-12.5c-17.6-8.3-32.3-19.7-44.1-34.1c-11.9-14.4-20.8-31.2-26.9-50.4C-747.1,690.3-750.2,670-750.2,648.7z"
					/>
				<path fill="#FFFFFF" d="M-1261.5,461c-55.4,43.9-90.9,111.8-90.9,187.8c0,75,34.7,142.1,88.8,186.1l-23.2,28.7
					c-62.5-50.7-102.4-128.1-102.4-214.8c0-87.7,40.9-165.9,104.6-216.6L-1261.5,461z M-939.2,433.6
					c62.8,50.7,102.9,128.2,102.9,215.2c0,86-39.3,162.8-100.8,213.5l-23.3-28.7c53.3-44,87.3-110.5,87.3-184.8
					c0-75.2-34.9-142.5-89.3-186.5L-939.2,433.6z"/>
				<circle fill="#FFFFFF" cx="-1519.7" cy="390.5" r="29.4"/>
			</g>
		</g>
	</g>
	<g>
		<path fill="#FFFFFF" d="M-196.7,654.9h-59.6v62.8h-26.2v-62.8h-59.2v-24.3h59.2v-62.7h26.2v62.7h59.6V654.9z"/>
	</g>
</g>
</svg>
