<?xml version="1.0" encoding="utf-8"?>
<!-- Generator: Adobe Illustrator 16.0.0, SVG Export Plug-In . SVG Version: 6.00 Build 0)  -->
<!DOCTYPE svg PUBLIC "-//W3C//DTD SVG 1.1//EN" "http://www.w3.org/Graphics/SVG/1.1/DTD/svg11.dtd">
<svg version="1.1" id="Layer_1" xmlns="http://www.w3.org/2000/svg" xmlns:xlink="http://www.w3.org/1999/xlink" x="0px" y="0px"
	 width="1440px" height="766.5px" viewBox="0 0 1440 766.5" enable-background="new 0 0 1440 766.5" xml:space="preserve">
<g>
	<path fill="#FBF9FC" stroke="#FBF9FC" d="M1576,797l39-112l-110-59L1576,797z"/>
	<path fill="#F6F5FA" stroke="#F6F5FA" d="M1576,797l-71-171l-93,184L1576,797z"/>
	<path fill="#EEEEF6" stroke="#EEEEF6" d="M1576,797l-164,13l-230,38L1576,797z"/>
	<path fill="#EEEDF6" stroke="#EEEDF6" d="M1412,810l93-184l-219,23L1412,810z"/>
	<path fill="#E9E9F3" stroke="#E9E9F3" d="M1412,810l-126-161l5,162L1412,810z"/>
	<path fill="#E6E7F2" stroke="#E6E7F2" d="M1412,810l-121,1l-109,37L1412,810z"/>
	<path fill="#DFE4F1" stroke="#DFE4F1" d="M1291,811l-5-162l-153,37L1291,811z"/>
	<path fill="#DCE3F0" stroke="#DCE3F0" d="M1291,811l-158-125l49,162L1291,811z"/>
	<path fill="#D1DEED" stroke="#D1DEED" d="M1182,848l-49-162l-164,99L1182,848z"/>
	<path fill="#C4D8EA" stroke="#C4D8EA" d="M1182,848l-213-63l-167,70L1182,848z"/>
	<path fill="#C8DAEB" stroke="#C8DAEB" d="M969,785l164-99l-164,6V785z"/>
	<path fill="#BBD5E8" stroke="#BBD5E8" d="M969,785v-93L802,855L969,785z"/>
	<path fill="#AED0E4" stroke="#AED0E4" d="M802,855l167-163l-257,65L802,855z"/>
	<path fill="#98C6DF" stroke="#98C6DF" d="M802,855l-90-98l-213,99L802,855z"/>
	<path fill="#B0CFE5" stroke="#B0CFE5" d="M712,757l257-65L861,590L712,757z"/>
	<path fill="#A0C9E2" stroke="#A0C9E2" d="M712,757l149-167l-193,62L712,757z"/>
	<path fill="#92C2DD" stroke="#92C2DD" d="M712,757l-44-105L499,856L712,757z"/>
	<path fill="#89BCDA" stroke="#89BCDA" d="M499,856l169-204l-176-18L499,856z"/>
	<path fill="#82B6D5" stroke="#82B6D5" d="M499,856l-7-222l-75,134L499,856z"/>
	<path fill="#82AEC9" stroke="#82AEC9" d="M499,856l-82-88l-207,21L499,856z"/>
	<path fill="#81A6BC" stroke="#81A6BC" d="M499,856l-289-67l-79,41L499,856z"/>
	<path fill="#80B0CE" stroke="#80B0CE" d="M417,768l75-134l-150-37L417,768z"/>
	<path fill="#80A9C3" stroke="#80A9C3" d="M417,768l-75-171l-102,66L417,768z"/>
	<path fill="#81A7BE" stroke="#81A7BE" d="M417,768L240,663l-30,126L417,768z"/>
	<path fill="#809CAE" stroke="#809CAE" d="M210,789l30-126L51,630L210,789z"/>
	<path fill="#809AA9" stroke="#809AA9" d="M210,789L51,630l80,200L210,789z"/>
	<path fill="#7F93A0" stroke="#7F93A0" d="M131,830L51,630l-54,16L131,830z"/>
	<path fill="#80919B" stroke="#80919B" d="M131,830L-3,646l-66,154L131,830z"/>
	<path fill="#7D8A95" stroke="#7D8A95" d="M-69,800l66-154l-2-152L-69,800z"/>
	<path fill="#577790" stroke="#577790" d="M-69,800l64-306l-71-343L-69,800z"/>
	<path fill="#1D5A7E" stroke="#1D5A7E" d="M-69,800l-7-649l-36-194L-69,800z"/>
	<path fill="#9DD1F0" stroke="#9DD1F0" d="M1615,685l18-612l-13,93L1615,685z"/>
	<path fill="#BBDEF8" stroke="#BBDEF8" d="M1615,685l5-519l-26,178L1615,685z"/>
	<path fill="#DDEBFD" stroke="#DDEBFD" d="M1615,685l-21-341l-12,151L1615,685z"/>
	<path fill="#F3F5FD" stroke="#F3F5FD" d="M1615,685l-33-190l-77,131L1615,685z"/>
	<path fill="#DDE8FA" stroke="#DDE8FA" d="M1505,626l77-131l-139-21L1505,626z"/>
	<path fill="#D5E2F7" stroke="#D5E2F7" d="M1505,626l-62-152l-132,18L1505,626z"/>
	<path fill="#E0E5F5" stroke="#E0E5F5" d="M1505,626l-194-134l-25,157L1505,626z"/>
	<path fill="#C6D7F0" stroke="#C6D7F0" d="M1286,649l25-157l-220-14L1286,649z"/>
	<path fill="#D0DCEF" stroke="#D0DCEF" d="M1286,649l-195-171l42,208L1286,649z"/>
	<path fill="#BCD2ED" stroke="#BCD2ED" d="M1133,686l-42-208l-42,32L1133,686z"/>
	<path fill="#C8D8EC" stroke="#C8D8EC" d="M1133,686l-84-176l-80,182L1133,686z"/>
	<path fill="#B7D1E9" stroke="#B7D1E9" d="M969,692l80-182l-188,80L969,692z"/>
	<path fill="#A5C9E8" stroke="#A5C9E8" d="M861,590l188-80l-221,44L861,590z"/>
	<path fill="#9EC7E3" stroke="#9EC7E3" d="M861,590l-33-36l-160,98L861,590z"/>
	<path fill="#8BBFE1" stroke="#8BBFE1" d="M668,652l160-98l-143-90L668,652z"/>
	<path fill="#7CB6DD" stroke="#7CB6DD" d="M668,652l17-188l-168,75L668,652z"/>
	<path fill="#83B8DA" stroke="#83B8DA" d="M668,652L517,539l-25,95L668,652z"/>
	<path fill="#72ADD4" stroke="#72ADD4" d="M492,634l25-95l-130,9L492,634z"/>
	<path fill="#77AACD" stroke="#77AACD" d="M492,634l-105-86l-45,49L492,634z"/>
	<path fill="#6E9FC1" stroke="#6E9FC1" d="M342,597l45-49l-159-8L342,597z"/>
	<path fill="#789FBB" stroke="#789FBB" d="M342,597l-114-57l12,123L342,597z"/>
	<path fill="#7A99AF" stroke="#7A99AF" d="M240,663l-12-123L51,630L240,663z"/>
	<path fill="#698CA7" stroke="#698CA7" d="M51,630l177-90L68,461L51,630z"/>
	<path fill="#65849D" stroke="#65849D" d="M51,630l17-169l-73,33L51,630z"/>
	<path fill="#74899A" stroke="#74899A" d="M51,630L-5,494l2,152L51,630z"/>
	<path fill="#C3DFF8" stroke="#C3DFF8" d="M1582,495l12-151l-151,130L1582,495z"/>
	<path fill="#A7D1F0" stroke="#A7D1F0" d="M1443,474l151-130l-193-50L1443,474z"/>
	<path fill="#A0CBED" stroke="#A0CBED" d="M1443,474l-42-180l-80,57L1443,474z"/>
	<path fill="#B5D2F1" stroke="#B5D2F1" d="M1443,474l-122-123l-10,141L1443,474z"/>
	<path fill="#9CC6EA" stroke="#9CC6EA" d="M1311,492l10-141l-218-4L1311,492z"/>
	<path fill="#A3C8EB" stroke="#A3C8EB" d="M1311,492l-208-145l-12,131L1311,492z"/>
	<path fill="#80BAE3" stroke="#80BAE3" d="M1091,478l12-131l-98-53L1091,478z"/>
	<path fill="#92C1E7" stroke="#92C1E7" d="M1091,478l-86-184l44,216L1091,478z"/>
	<path fill="#71B4E0" stroke="#71B4E0" d="M1049,510l-44-216l-181,9L1049,510z"/>
	<path fill="#88BDE5" stroke="#88BDE5" d="M1049,510L824,303l4,251L1049,510z"/>
	<path fill="#68B0DE" stroke="#68B0DE" d="M828,554l-4-251l-109,69L828,554z"/>
	<path fill="#73B4DF" stroke="#73B4DF" d="M828,554L715,372l-30,92L828,554z"/>
	<path fill="#56A7D9" stroke="#56A7D9" d="M685,464l30-92l-192,34L685,464z"/>
	<path fill="#5FA9D9" stroke="#5FA9D9" d="M685,464l-162-58l-6,133L685,464z"/>
	<path fill="#5EA4D5" stroke="#5EA4D5" d="M517,539l6-133L387,548L517,539z"/>
	<path fill="#4899CE" stroke="#4899CE" d="M387,548l136-142l-85-84L387,548z"/>
	<path fill="#428FC0" stroke="#428FC0" d="M387,548l51-226l-216,35L387,548z"/>
	<path fill="#5892BB" stroke="#5892BB" d="M387,548L222,357l6,183L387,548z"/>
	<path fill="#4F86AC" stroke="#4F86AC" d="M228,540l-6-183L68,461L228,540z"/>
	<path fill="#3378A1" stroke="#3378A1" d="M68,461l154-104l-109-56L68,461z"/>
	<path fill="#337298" stroke="#337298" d="M68,461l45-160L4,359L68,461z"/>
	<path fill="#497798" stroke="#497798" d="M68,461L4,359l-9,135L68,461z"/>
	<path fill="#246589" stroke="#246589" d="M-5,494l9-135l-80-208L-5,494z"/>
	<path fill="#91C2E8" stroke="#91C2E8" d="M1594,344l26-178l-125,63L1594,344z"/>
	<path fill="#92C5E9" stroke="#92C5E9" d="M1594,344l-99-115l-94,65L1594,344z"/>
	<path fill="#86B7E3" stroke="#86B7E3" d="M1401,294l94-65l-145-1L1401,294z"/>
	<path fill="#87BBE4" stroke="#87BBE4" d="M1401,294l-51-66l-29,123L1401,294z"/>
	<path fill="#7DB2E0" stroke="#7DB2E0" d="M1321,351l29-123l-156-14L1321,351z"/>
	<path fill="#7AB5E1" stroke="#7AB5E1" d="M1321,351l-127-137l-91,133L1321,351z"/>
	<path fill="#6DADDC" stroke="#6DADDC" d="M1103,347l91-133l-189,80L1103,347z"/>
	<path fill="#659DD1" stroke="#659DD1" d="M1005,294l189-80l-66-109L1005,294z"/>
	<path fill="#5A9CD3" stroke="#5A9CD3" d="M1005,294l123-189L937,258L1005,294z"/>
	<path fill="#57A4D7" stroke="#57A4D7" d="M1005,294l-68-36l-113,45L1005,294z"/>
	<path fill="#50A0D5" stroke="#50A0D5" d="M824,303l113-45h-40L824,303z"/>
	<path fill="#4096D0" stroke="#4096D0" d="M824,303l73-45l-215-71L824,303z"/>
	<path fill="#3C9AD1" stroke="#3C9AD1" d="M824,303L682,187l33,185L824,303z"/>
	<path fill="#2C8ECB" stroke="#2C8ECB" d="M715,372l-33-185l-118,27L715,372z"/>
	<path fill="#3298CF" stroke="#3298CF" d="M715,372L564,214l-41,192L715,372z"/>
	<path fill="#238DCA" stroke="#238DCA" d="M523,406l41-192L438,322L523,406z"/>
	<path fill="#1678BC" stroke="#1678BC" d="M438,322l126-108l-225-52L438,322z"/>
	<path fill="#1570AF" stroke="#1570AF" d="M438,322l-99-160l-87,46L438,322z"/>
	<path fill="#1E79B0" stroke="#1E79B0" d="M438,322L252,208l-30,149L438,322z"/>
	<path fill="#1C6FA1" stroke="#1C6FA1" d="M222,357l30-149l-139,93L222,357z"/>
	<path fill="#145F94" stroke="#145F94" d="M113,301l139-93L44,187L113,301z"/>
	<path fill="#1B628E" stroke="#1B628E" d="M113,301L44,187L4,359L113,301z"/>
	<path fill="#135382" stroke="#135382" d="M4,359l40-172l-120-36L4,359z"/>
	<path fill="#8FA6C1" stroke="#8FA6C1" d="M1620,166l13-93l-162,9L1620,166z"/>
	<path fill="#8BADD0" stroke="#8BADD0" d="M1620,166l-149-84l24,147L1620,166z"/>
	<path fill="#84ABD3" stroke="#84ABD3" d="M1495,229l-24-147l-121,146L1495,229z"/>
	<path fill="#7F97B8" stroke="#7F97B8" d="M1350,228l121-146L1309-3L1350,228z"/>
	<path fill="#779AC3" stroke="#779AC3" d="M1350,228L1309-3l-115,217L1350,228z"/>
	<path fill="#6F8FB4" stroke="#6F8FB4" d="M1194,214L1309-3l-181,108L1194,214z"/>
	<path fill="#5B8BB7" stroke="#5B8BB7" d="M937,258l191-153l-117-76L937,258z"/>
	<path fill="#5191C5" stroke="#5191C5" d="M937,258l74-229L897,258H937z"/>
	<path fill="#4C80AC" stroke="#4C80AC" d="M897,258l114-229l-204,5L897,258z"/>
	<path fill="#3E7DAC" stroke="#3E7DAC" d="M897,258L807,34l-69,34L897,258z"/>
	<path fill="#3885BB" stroke="#3885BB" d="M897,258L738,68l-56,119L897,258z"/>
	<path fill="#2A6C9C" stroke="#2A6C9C" d="M682,187l56-119L603-9L682,187z"/>
	<path fill="#2372A9" stroke="#2372A9" d="M682,187L603-9l-39,223L682,187z"/>
	<path fill="#165D90" stroke="#165D90" d="M564,214L603-9L365-8L564,214z"/>
	<path fill="#146098" stroke="#146098" d="M564,214L365-8l-26,170L564,214z"/>
	<path fill="#134D79" stroke="#134D79" d="M339,162L365-8l-70,32L339,162z"/>
	<path fill="#13588B" stroke="#13588B" d="M339,162L295,24l-43,184L339,162z"/>
	<path fill="#134A74" stroke="#134A74" d="M252,208l43-184l-151,5L252,208z"/>
	<path fill="#134E7B" stroke="#134E7B" d="M252,208L144,29L44,187L252,208z"/>
	<path fill="#123B5D" stroke="#123B5D" d="M44,187L144,29L-47,52L44,187z"/>
	<path fill="#123D61" stroke="#123D61" d="M44,187L-47,52l-29,99L44,187z"/>
	<path fill="#122A42" stroke="#122A42" d="M-76,151l29-99l-65-95L-76,151z"/>
	<path fill="#8E94A5" stroke="#8E94A5" d="M1633,73l-46-169L1471,82L1633,73z"/>
	<path fill="#898796" stroke="#898796" d="M1471,82l116-178l-131,40L1471,82z"/>
	<path fill="#82879C" stroke="#82879C" d="M1471,82l-15-138L1309-3L1471,82z"/>
	<path fill="#7C7687" stroke="#7C7687" d="M1309-3l147-53l-173-43L1309-3z"/>
	<path fill="#726F82" stroke="#726F82" d="M1309-3l-26-96l-157,29L1309-3z"/>
	<path fill="#6D7B96" stroke="#6D7B96" d="M1309-3l-183-67l2,175L1309-3z"/>
	<path fill="#627896" stroke="#627896" d="M1128,105l-2-175l-115,99L1128,105z"/>
	<path fill="#5F687F" stroke="#5F687F" d="M1011,29l115-99l-78-34L1011,29z"/>
	<path fill="#546076" stroke="#546076" d="M1011,29l37-133l-204-28L1011,29z"/>
	<path fill="#496582" stroke="#496582" d="M1011,29L844-132L807,34L1011,29z"/>
	<path fill="#3B5874" stroke="#3B5874" d="M807,34l37-166L734-79L807,34z"/>
	<path fill="#366387" stroke="#366387" d="M807,34L734-79l4,147L807,34z"/>
	<path fill="#2C5C80" stroke="#2C5C80" d="M738,68l-4-147L603-9L738,68z"/>
	<path fill="#244D6F" stroke="#244D6F" d="M603-9l131-70l-208,4L603-9z"/>
	<path fill="#154871" stroke="#154871" d="M603-9l-77-66L365-8L603-9z"/>
	<path fill="#143D60" stroke="#143D60" d="M365-8l161-67L393-86L365-8z"/>
	<path fill="#143E61" stroke="#143E61" d="M365-8l28-78L295,24L365-8z"/>
	<path fill="#13314D" stroke="#13314D" d="M295,24l98-110l-205-42L295,24z"/>
	<path fill="#132C46" stroke="#132C46" d="M295,24L188-128l-46,81L295,24z"/>
	<path fill="#133655" stroke="#133655" d="M295,24L142-47l2,76L295,24z"/>
	<path fill="#122E49" stroke="#122E49" d="M144,29l-2-76L-47,52L144,29z"/>
	<path fill="#122237" stroke="#122237" d="M-47,52l189-99l-254,4L-47,52z"/>
	<path fill="#726571" stroke="#726571" d="M1587-96l-743-36l439,33L1587-96z"/>
	<path fill="#847780" stroke="#847780" d="M1587-96l-304-3l173,43L1587-96z"/>
	<path fill="#5F5C6C" stroke="#5F5C6C" d="M1283-99l-439-33l204,28L1283-99z"/>
	<path fill="#696475" stroke="#696475" d="M1283-99l-235-5l78,34L1283-99z"/>
	<path fill="#143756" stroke="#143756" d="M844-132l-656,4l205,42L844-132z"/>
	<path fill="#20425F" stroke="#20425F" d="M844-132L393-86l133,11L844-132z"/>
	<path fill="#2D4B65" stroke="#2D4B65" d="M844-132L526-75l208-4L844-132z"/>
	<path fill="#121D2E" stroke="#121D2E" d="M188-128l-300,85l254-4L188-128z"/>
</g>
</svg>
